<svg xmlns="http://www.w3.org/2000/svg" id="outline-supervisor_account-24px" width="24" height="24" viewBox="0 0 24 24">
    <defs>
        <style>
            .cls-1{fill:none}.cls-2{fill:#014a62}
        </style>
    </defs>
    <path id="Path_465" d="M0 0h24v24H0z" class="cls-1" data-name="Path 465"/>
    <path id="Path_466" d="M9 12a3.5 3.5 0 1 0-3.5-3.5A3.5 3.5 0 0 0 9 12zm0-5a1.5 1.5 0 1 1-1.5 1.5A1.5 1.5 0 0 1 9 7zm.05 10H4.77A10.374 10.374 0 0 1 9 16c.11 0 .23.01.34.01a4.58 4.58 0 0 1 1.64-1.81A11.726 11.726 0 0 0 9 14c-2.34 0-7 1.17-7 3.5V19h7v-1.5a2.734 2.734 0 0 1 .05-.5zm7.45-2.5c-1.84 0-5.5 1.01-5.5 3V19h11v-1.5c0-1.99-3.66-3-5.5-3zm1.21-1.82a2.5 2.5 0 1 0-2.42 0 2.448 2.448 0 0 0 2.42 0z" class="cls-2" data-name="Path 466"/>
</svg>
