<svg xmlns="http://www.w3.org/2000/svg" id="outline-class-24px_1_" width="24" height="24" data-name="outline-class-24px (1)" viewBox="0 0 24 24">
    <defs>
        <style>
            .cls-1{fill:none}.cls-2{fill:#014a62}
        </style>
    </defs>
    <path id="Path_467" d="M0 0h24v24H0z" class="cls-1" data-name="Path 467"/>
    <path id="Path_468" d="M18 2H6a2.006 2.006 0 0 0-2 2v16a2.006 2.006 0 0 0 2 2h12a2.006 2.006 0 0 0 2-2V4a2.006 2.006 0 0 0-2-2zM9 4h2v5l-1-.75L9 9zm9 16H6V4h1v9l3-2.25L13 13V4h5z" class="cls-2" data-name="Path 468"/>
</svg>
