<svg width="976" height="238" viewBox="0 0 976 238" fill="none" xmlns="http://www.w3.org/2000/svg">
<path d="M117.41 9.40005L130.17 22.1601C130.73 22.7175 131.174 23.3798 131.476 24.1091C131.779 24.8385 131.935 25.6204 131.935 26.4101C131.935 27.1997 131.779 27.9817 131.476 28.711C131.174 29.4403 130.73 30.1026 130.17 30.6601L47.2504 113.58C44.4566 116.371 42.2402 119.685 40.728 123.333C39.2158 126.981 38.4375 130.891 38.4375 134.84C38.4375 138.789 39.2158 142.699 40.728 146.347C42.2402 149.995 44.4566 153.309 47.2504 156.1L9.00039 117.83C6.20656 115.039 3.9902 111.725 2.47802 108.077C0.96584 104.429 0.1875 100.519 0.1875 96.5701C0.1875 92.6211 0.96584 88.7109 2.47802 85.0629C3.9902 81.415 6.20656 78.1009 9.00039 75.3101L74.8904 9.40005C80.5294 3.76249 88.1767 0.595459 96.1504 0.595459C104.124 0.595459 111.771 3.76249 117.41 9.40005Z" fill="#5CC4E9"/>
<path d="M64.2504 96.5701L104.65 136.97C105.21 137.527 105.654 138.19 105.956 138.919C106.259 139.648 106.415 140.43 106.415 141.22C106.415 142.01 106.259 142.792 105.956 143.521C105.654 144.25 105.21 144.913 104.65 145.47L91.8904 158.23C86.2514 163.868 78.6041 167.035 70.6304 167.035C62.6567 167.035 55.0094 163.868 49.3704 158.23L47.2504 156.1C44.4566 153.309 42.2402 149.995 40.728 146.347C39.2158 142.699 38.4375 138.789 38.4375 134.84C38.4375 130.891 39.2158 126.981 40.728 123.333C42.2402 119.685 44.4566 116.371 47.2504 113.58L64.2504 96.5701Z" fill="url(#paint0_linear_271_790)"/>
<path d="M68.5111 228.39L55.7511 215.63C55.1917 215.073 54.7479 214.41 54.445 213.681C54.1422 212.952 53.9863 212.17 53.9863 211.38C53.9863 210.59 54.1422 209.808 54.445 209.079C54.7479 208.35 55.1917 207.687 55.7511 207.13L138.671 124.21C144.309 118.571 147.476 110.924 147.476 102.95C147.476 94.9763 144.309 87.3291 138.671 81.6901L176.941 120C182.579 125.639 185.746 133.286 185.746 141.26C185.746 149.234 182.579 156.881 176.941 162.52L111.001 228.39C105.363 234.018 97.7224 237.18 89.7561 237.18C81.7897 237.18 74.1488 234.018 68.5111 228.39V228.39Z" fill="#02798F"/>
<path d="M121.661 141.22L81.2608 100.82C80.7015 100.263 80.2576 99.6003 79.9548 98.871C79.652 98.1417 79.4961 97.3598 79.4961 96.5701C79.4961 95.7804 79.652 94.9985 79.9548 94.2692C80.2576 93.5399 80.7015 92.8775 81.2608 92.3201L94.0008 79.5601C99.6398 73.9225 107.287 70.7555 115.261 70.7555C123.235 70.7555 130.882 73.9225 136.521 79.5601L138.651 81.6901C144.288 87.3291 147.455 94.9764 147.455 102.95C147.455 110.924 144.288 118.571 138.651 124.21L121.661 141.22Z" fill="url(#paint1_linear_271_790)"/>
<path d="M251 201.67C251.051 203.19 250.59 204.684 249.69 205.91C248.774 207.084 247.553 207.984 246.16 208.51C244.621 209.11 242.981 209.409 241.33 209.39H226.85V179.39H242.85C244.156 179.356 245.437 179.749 246.5 180.51C247.525 181.246 248.341 182.234 248.87 183.38C249.413 184.52 249.693 185.767 249.69 187.03C249.692 188.467 249.313 189.878 248.59 191.12C247.87 192.41 246.74 193.424 245.38 194C247.004 194.439 248.438 195.402 249.46 196.74C250.512 198.164 251.054 199.901 251 201.67V201.67ZM232.67 184.4V192H240.44C241.064 192.005 241.679 191.842 242.22 191.53C242.757 191.218 243.2 190.765 243.5 190.22C243.839 189.609 244.008 188.919 243.99 188.22C244.005 187.528 243.854 186.842 243.55 186.22C243.277 185.685 242.866 185.233 242.36 184.91C241.862 184.6 241.286 184.441 240.7 184.45L232.67 184.4ZM245.13 200.57C245.139 199.859 244.978 199.156 244.66 198.52C244.375 197.945 243.948 197.453 243.42 197.09C242.892 196.732 242.267 196.547 241.63 196.56H232.63V204.45H241.29C241.965 204.458 242.63 204.278 243.21 203.93C243.778 203.579 244.249 203.09 244.58 202.51C244.933 201.924 245.123 201.254 245.13 200.57V200.57Z" fill="#03798F"/>
<path d="M265.27 209.82C263.623 209.844 261.987 209.538 260.46 208.92C259.079 208.358 257.827 207.521 256.78 206.46C255.777 205.421 254.982 204.199 254.44 202.86C253.889 201.504 253.611 200.053 253.62 198.59C253.597 196.592 254.083 194.62 255.03 192.86C255.974 191.132 257.375 189.696 259.08 188.71C260.975 187.63 263.129 187.087 265.31 187.14C267.485 187.08 269.634 187.624 271.52 188.71C273.184 189.708 274.545 191.139 275.46 192.85C276.376 194.552 276.851 196.457 276.84 198.39C276.84 198.73 276.84 199.07 276.84 199.39C276.84 199.71 276.79 200.02 276.76 200.24H259.66C259.748 201.271 260.092 202.265 260.66 203.13C261.185 203.932 261.913 204.58 262.77 205.01C263.63 205.439 264.579 205.658 265.54 205.65C266.655 205.65 267.753 205.368 268.73 204.83C269.632 204.361 270.34 203.589 270.73 202.65L275.59 204C275.043 205.151 274.259 206.173 273.29 207C272.251 207.898 271.054 208.593 269.76 209.05C268.32 209.569 266.8 209.83 265.27 209.82V209.82ZM259.48 196.69H271.05C270.966 195.671 270.641 194.687 270.1 193.82C269.607 193.026 268.918 192.372 268.1 191.92C267.227 191.465 266.255 191.231 265.27 191.24C264.304 191.229 263.351 191.463 262.5 191.92C261.683 192.374 260.995 193.028 260.5 193.82C259.939 194.683 259.59 195.667 259.48 196.69V196.69Z" fill="#03798F"/>
<path d="M280.261 178.57H285.911V202.38C285.827 203.103 286.008 203.831 286.421 204.43C286.603 204.61 286.821 204.75 287.06 204.841C287.299 204.932 287.555 204.973 287.811 204.96C288.282 204.956 288.752 204.899 289.211 204.79C289.645 204.696 290.067 204.555 290.471 204.37L291.231 208.68C290.382 209.069 289.489 209.351 288.571 209.52C287.669 209.709 286.752 209.809 285.831 209.82C285.084 209.866 284.336 209.764 283.629 209.52C282.922 209.276 282.271 208.896 281.711 208.4C281.211 207.866 280.824 207.236 280.575 206.549C280.326 205.861 280.219 205.13 280.261 204.4V178.57Z" fill="#03798F"/>
<path d="M292.16 202.93C292.134 201.586 292.561 200.273 293.37 199.2C294.237 198.08 295.396 197.222 296.72 196.72C298.294 196.107 299.972 195.808 301.66 195.84C302.607 195.841 303.553 195.912 304.49 196.05C305.347 196.163 306.185 196.392 306.98 196.73V195.55C307.018 194.96 306.927 194.369 306.713 193.818C306.499 193.267 306.167 192.769 305.74 192.36C304.69 191.539 303.37 191.139 302.04 191.24C300.858 191.235 299.685 191.449 298.58 191.87C297.359 192.355 296.199 192.979 295.12 193.73L293.3 190C294.696 189.084 296.21 188.36 297.8 187.85C299.364 187.366 300.993 187.123 302.63 187.13C305.79 187.13 308.24 187.91 310 189.46C310.902 190.308 311.607 191.345 312.063 192.496C312.519 193.647 312.716 194.884 312.64 196.12V203.12C312.6 203.558 312.713 203.996 312.96 204.36C313.223 204.635 313.58 204.8 313.96 204.82V209.42L312.59 209.64C312.259 209.686 311.925 209.712 311.59 209.72C310.676 209.787 309.769 209.517 309.04 208.96C308.478 208.482 308.097 207.825 307.96 207.1L307.84 205.96C306.892 207.191 305.66 208.176 304.25 208.83C302.88 209.487 301.38 209.829 299.86 209.83C298.474 209.86 297.1 209.552 295.86 208.93C294.74 208.371 293.79 207.521 293.11 206.47C292.458 205.406 292.129 204.177 292.16 202.93V202.93ZM305.93 204.03C306.218 203.724 306.473 203.389 306.69 203.03C306.863 202.76 306.963 202.45 306.98 202.13V200C306.274 199.711 305.541 199.497 304.79 199.36C304.052 199.214 303.302 199.137 302.55 199.13C301.282 199.078 300.026 199.401 298.94 200.06C298.51 200.307 298.152 200.664 297.905 201.095C297.657 201.525 297.528 202.014 297.53 202.51C297.546 203.041 297.708 203.557 298 204C298.333 204.515 298.799 204.93 299.35 205.2C300.008 205.516 300.731 205.67 301.46 205.65C302.312 205.648 303.156 205.489 303.95 205.18C304.678 204.913 305.349 204.513 305.93 204V204.03Z" fill="#03798F"/>
<path d="M316.1 217.67C315.08 217.675 314.066 217.509 313.1 217.18C312.143 216.854 311.257 216.349 310.49 215.69L312.94 211.84C313.248 212.179 313.642 212.428 314.08 212.56C314.517 212.698 314.972 212.769 315.43 212.77C315.91 212.774 316.382 212.654 316.8 212.42C317.219 212.184 317.564 211.838 317.8 211.42C318.044 210.987 318.168 210.497 318.16 210V187.48H323.82V209.62C323.855 211.08 323.511 212.524 322.82 213.81C322.181 214.99 321.234 215.975 320.08 216.66C318.872 217.357 317.495 217.706 316.1 217.67ZM318.1 184.4V178.78H323.76V184.4H318.1Z" fill="#03798F"/>
<path d="M327.42 202.93C327.396 201.588 327.818 200.276 328.62 199.2C329.488 198.077 330.652 197.219 331.98 196.72C333.554 196.106 335.232 195.807 336.92 195.84C337.868 195.841 338.813 195.912 339.75 196.05C340.607 196.166 341.444 196.394 342.24 196.73V195.55C342.277 194.959 342.184 194.368 341.968 193.817C341.753 193.266 341.419 192.768 340.99 192.36C339.943 191.54 338.627 191.141 337.3 191.24C336.115 191.235 334.939 191.449 333.83 191.87C332.611 192.358 331.45 192.981 330.37 193.73L328.56 190C329.952 189.082 331.463 188.358 333.05 187.85C334.618 187.366 336.25 187.123 337.89 187.13C341.044 187.13 343.5 187.907 345.26 189.46C346.159 190.31 346.86 191.347 347.315 192.498C347.769 193.649 347.966 194.885 347.89 196.12V203.12C347.85 203.558 347.964 203.996 348.21 204.36C348.474 204.634 348.831 204.798 349.21 204.82V209.42L347.84 209.64C347.509 209.686 347.175 209.712 346.84 209.72C345.923 209.788 345.012 209.518 344.28 208.96C343.725 208.478 343.348 207.823 343.21 207.1L343.08 205.96C342.134 207.194 340.902 208.178 339.49 208.83C338.121 209.488 336.62 209.83 335.1 209.83C333.714 209.859 332.341 209.55 331.1 208.93C329.981 208.374 329.034 207.523 328.36 206.47C327.712 205.405 327.386 204.176 327.42 202.93ZM341.18 204.03C341.468 203.724 341.723 203.389 341.94 203.03C342.121 202.763 342.224 202.452 342.24 202.13V200C341.531 199.713 340.794 199.498 340.04 199.36C339.303 199.213 338.553 199.136 337.8 199.13C336.532 199.079 335.277 199.403 334.19 200.06C333.76 200.307 333.403 200.664 333.155 201.095C332.907 201.525 332.778 202.014 332.78 202.51C332.78 203.064 332.939 203.606 333.24 204.07C333.573 204.585 334.04 205 334.59 205.27C335.252 205.585 335.978 205.739 336.71 205.72C337.562 205.716 338.406 205.557 339.2 205.25C339.933 204.961 340.604 204.537 341.18 204V204.03Z" fill="#03798F"/>
<path d="M366.34 192.17C364.75 192.146 363.176 192.488 361.74 193.17C360.467 193.752 359.438 194.76 358.83 196.02V209.4H353.17V187.48H358.36V192C359.062 190.583 360.09 189.353 361.36 188.41C362.48 187.585 363.812 187.096 365.2 187H365.92C366.059 186.982 366.201 186.982 366.34 187V192.17Z" fill="#03798F"/>
<path d="M365.8 214.25L366.94 209.25H365.16V203.33H370.06V209.25L368.33 214.25H365.8Z" fill="#03798F"/>
<path d="M409.92 201.67C409.971 203.19 409.509 204.684 408.61 205.91C407.692 207.082 406.471 207.981 405.08 208.51C403.541 209.109 401.901 209.408 400.25 209.39H385.77V179.39H401.77C403.076 179.356 404.357 179.749 405.42 180.51C406.445 181.246 407.261 182.234 407.79 183.38C408.333 184.52 408.613 185.767 408.61 187.03C408.607 188.466 408.228 189.877 407.51 191.12C406.79 192.41 405.66 193.424 404.3 194C405.924 194.439 407.358 195.402 408.38 196.74C409.431 198.164 409.974 199.901 409.92 201.67ZM391.59 184.4V192H399.36C399.981 192.006 400.593 191.844 401.13 191.53C401.672 191.221 402.119 190.768 402.42 190.22C402.759 189.609 402.928 188.919 402.91 188.22C402.927 187.526 402.772 186.839 402.46 186.22C402.191 185.686 401.783 185.233 401.28 184.91C400.779 184.599 400.199 184.439 399.61 184.45L391.59 184.4ZM404.05 200.57C404.059 199.859 403.898 199.156 403.58 198.52C403.295 197.945 402.868 197.453 402.34 197.09C401.809 196.731 401.18 196.545 400.54 196.56H391.54V204.45H400.2C400.875 204.458 401.54 204.278 402.12 203.93C402.688 203.579 403.159 203.09 403.49 202.51C403.846 201.925 404.04 201.255 404.05 200.57V200.57Z" fill="#03798F"/>
<path d="M424.19 209.82C422.54 209.844 420.901 209.538 419.37 208.92C417.993 208.357 416.745 207.52 415.7 206.46C414.697 205.421 413.903 204.199 413.36 202.86C412.806 201.505 412.524 200.054 412.53 198.59C412.506 196.59 412.995 194.617 413.95 192.86C414.895 191.132 416.296 189.696 418 188.71C419.896 187.63 422.049 187.087 424.23 187.14C426.405 187.08 428.555 187.624 430.44 188.71C432.104 189.708 433.466 191.139 434.38 192.85C435.293 194.553 435.765 196.458 435.75 198.39C435.75 198.73 435.75 199.07 435.75 199.39C435.75 199.71 435.75 200.02 435.67 200.24H418.57C418.658 201.271 419.002 202.265 419.57 203.13C420.093 203.934 420.822 204.583 421.68 205.01C422.54 205.439 423.489 205.658 424.45 205.65C425.565 205.649 426.663 205.367 427.64 204.83C428.54 204.358 429.247 203.587 429.64 202.65L434.5 204C433.949 205.148 433.166 206.17 432.2 207C431.16 207.896 429.963 208.591 428.67 209.05C427.234 209.568 425.717 209.828 424.19 209.82V209.82ZM418.4 196.69H430C429.901 195.667 429.558 194.683 429 193.82C428.509 193.025 427.82 192.37 427 191.92C426.129 191.46 425.156 191.226 424.17 191.24C423.208 191.23 422.258 191.464 421.41 191.92C420.593 192.374 419.905 193.028 419.41 193.82C418.848 194.682 418.502 195.666 418.4 196.69V196.69Z" fill="#03798F"/>
<path d="M452.391 192.17C450.801 192.145 449.227 192.487 447.791 193.17C446.518 193.752 445.489 194.76 444.881 196.02V209.4H439.221V187.48H444.411V192C445.113 190.583 446.141 189.353 447.411 188.41C448.528 187.574 449.86 187.075 451.251 186.97H452.001C452.14 186.952 452.281 186.952 452.421 186.97L452.391 192.17Z" fill="#03798F"/>
<path d="M470.671 209.39L464.211 199.93L461.211 202.86V209.39H455.561V178.57H461.211V197.33L470.121 187.48H476.121L467.891 196.78L476.711 209.39H470.671Z" fill="#03798F"/>
<path d="M488.19 209.82C486.53 209.847 484.881 209.541 483.34 208.92C481.961 208.359 480.716 207.51 479.69 206.43C478.691 205.384 477.91 204.15 477.39 202.8C476.31 200.021 476.31 196.939 477.39 194.16C477.91 192.81 478.691 191.576 479.69 190.53C480.716 189.45 481.961 188.601 483.34 188.04C486.459 186.84 489.912 186.84 493.03 188.04C494.406 188.609 495.649 189.457 496.68 190.53C497.686 191.571 498.469 192.806 498.98 194.16C500.021 196.946 500.021 200.014 498.98 202.8C498.472 204.151 497.697 205.386 496.7 206.43C495.675 207.51 494.43 208.359 493.05 208.92C491.507 209.541 489.854 209.847 488.19 209.82ZM482.41 198.5C482.386 199.672 482.647 200.832 483.17 201.88C483.644 202.817 484.359 203.61 485.24 204.18C486.125 204.731 487.149 205.016 488.19 205C489.226 205.011 490.242 204.715 491.11 204.15C491.996 203.575 492.716 202.779 493.2 201.84C493.714 200.791 493.98 199.638 493.98 198.47C493.98 197.302 493.714 196.149 493.2 195.1C492.722 194.158 492 193.36 491.11 192.79C490.23 192.241 489.213 191.951 488.175 191.951C487.138 191.951 486.121 192.241 485.24 192.79C484.36 193.365 483.646 194.162 483.17 195.1C482.645 196.155 482.384 197.322 482.41 198.5V198.5Z" fill="#03798F"/>
<path d="M503.52 178.57H509.18V202.38C509.1 203.101 509.277 203.827 509.68 204.43C509.864 204.61 510.083 204.75 510.324 204.841C510.565 204.932 510.822 204.973 511.08 204.96C511.548 204.956 512.014 204.899 512.47 204.79C512.906 204.694 513.332 204.553 513.74 204.37L514.5 208.68C513.651 209.068 512.757 209.35 511.84 209.52C510.935 209.708 510.014 209.809 509.09 209.82C507.592 209.906 506.121 209.396 505 208.4C504.498 207.867 504.11 207.237 503.859 206.55C503.609 205.862 503.5 205.131 503.54 204.4L503.52 178.57Z" fill="#03798F"/>
<path d="M515.43 202.93C515.405 201.588 515.828 200.276 516.63 199.2C517.498 198.077 518.662 197.219 519.99 196.72C521.563 196.106 523.242 195.807 524.93 195.84C525.874 195.841 526.817 195.912 527.75 196.05C528.61 196.164 529.451 196.393 530.25 196.73V195.55C530.287 194.959 530.194 194.368 529.978 193.817C529.762 193.266 529.429 192.768 529 192.36C527.953 191.54 526.637 191.141 525.31 191.24C524.125 191.235 522.948 191.449 521.84 191.87C520.62 192.358 519.46 192.981 518.38 193.73L516.57 190C517.962 189.082 519.472 188.358 521.06 187.85C522.628 187.366 524.26 187.123 525.9 187.13C529.05 187.13 531.51 187.91 533.26 189.46C534.162 190.308 534.867 191.345 535.323 192.496C535.779 193.647 535.976 194.884 535.9 196.12V203.12C535.86 203.558 535.973 203.996 536.22 204.36C536.483 204.635 536.84 204.8 537.22 204.82V209.42L535.85 209.64C535.519 209.686 535.185 209.712 534.85 209.72C533.933 209.788 533.022 209.518 532.29 208.96C531.735 208.478 531.358 207.823 531.22 207.1L531.09 205.96C530.144 207.194 528.912 208.178 527.5 208.83C526.13 209.488 524.63 209.83 523.11 209.83C521.724 209.859 520.351 209.55 519.11 208.93C517.991 208.374 517.043 207.523 516.37 206.47C515.722 205.405 515.395 204.176 515.43 202.93ZM529.19 204.03C529.478 203.724 529.733 203.389 529.95 203.03C530.13 202.763 530.234 202.452 530.25 202.13V200C529.541 199.713 528.803 199.498 528.05 199.36C527.312 199.213 526.562 199.136 525.81 199.13C524.542 199.079 523.286 199.403 522.2 200.06C521.77 200.307 521.412 200.664 521.165 201.095C520.917 201.525 520.788 202.014 520.79 202.51C520.789 203.064 520.949 203.606 521.25 204.07C521.583 204.585 522.049 205 522.6 205.27C523.258 205.584 523.981 205.739 524.71 205.72C525.565 205.717 526.413 205.558 527.21 205.25C527.943 204.961 528.614 204.537 529.19 204V204.03Z" fill="#03798F"/>
<path d="M553.76 209.82C552.179 209.847 550.619 209.454 549.24 208.68C547.936 207.938 546.858 206.856 546.12 205.55V209.39H541.18V178.57H546.84V191.41C547.59 190.12 548.657 189.043 549.94 188.28C551.308 187.497 552.864 187.103 554.44 187.14C555.799 187.123 557.143 187.432 558.36 188.04C559.549 188.641 560.596 189.49 561.43 190.53C562.309 191.61 562.987 192.84 563.43 194.16C563.901 195.572 564.138 197.052 564.13 198.54C564.14 200.039 563.876 201.527 563.35 202.93C562.844 204.254 562.106 205.476 561.17 206.54C560.248 207.588 559.11 208.423 557.834 208.989C556.558 209.556 555.175 209.839 553.78 209.82H553.76ZM552.2 205C553.051 205.011 553.895 204.834 554.67 204.48C555.4 204.152 556.06 203.683 556.61 203.1C557.166 202.509 557.598 201.812 557.88 201.05C558.172 200.259 558.321 199.423 558.32 198.58C558.332 197.441 558.079 196.314 557.58 195.29C557.127 194.328 556.439 193.496 555.58 192.87C554.795 192.343 553.885 192.032 552.942 191.971C551.999 191.909 551.056 192.099 550.21 192.52C549.454 192.893 548.775 193.405 548.21 194.03C547.633 194.662 547.169 195.39 546.84 196.18V201.36C547.006 201.908 547.285 202.416 547.66 202.85C548.048 203.297 548.499 203.684 549 204C549.495 204.309 550.025 204.557 550.58 204.74C551.103 204.911 551.649 204.999 552.2 205V205Z" fill="#03798F"/>
<path d="M578.171 209.82C576.507 209.847 574.855 209.541 573.311 208.92C571.932 208.357 570.688 207.508 569.661 206.43C568.662 205.384 567.88 204.15 567.361 202.8C566.294 200.019 566.294 196.941 567.361 194.16C567.88 192.81 568.662 191.576 569.661 190.53C570.688 189.452 571.932 188.604 573.311 188.04C574.855 187.419 576.507 187.113 578.171 187.14C579.825 187.113 581.468 187.419 583.001 188.04C584.377 188.609 585.62 189.457 586.651 190.53C587.66 191.568 588.443 192.804 588.951 194.16C589.991 196.946 589.991 200.014 588.951 202.8C588.443 204.151 587.667 205.386 586.671 206.43C585.645 207.51 584.401 208.359 583.021 208.92C581.48 209.541 579.831 209.847 578.171 209.82V209.82ZM572.381 198.5C572.361 199.671 572.622 200.83 573.141 201.88C573.615 202.817 574.329 203.611 575.211 204.18C576.11 204.74 577.152 205.025 578.211 205C579.244 205.013 580.257 204.717 581.121 204.15C582.006 203.575 582.727 202.779 583.211 201.84C583.724 200.791 583.991 199.638 583.991 198.47C583.991 197.302 583.724 196.149 583.211 195.1C582.733 194.158 582.011 193.36 581.121 192.79C580.24 192.241 579.223 191.951 578.186 191.951C577.148 191.951 576.131 192.241 575.251 192.79C574.37 193.365 573.656 194.162 573.181 195.1C572.646 196.153 572.372 197.319 572.381 198.5V198.5Z" fill="#03798F"/>
<path d="M606.711 192.17C605.121 192.145 603.547 192.487 602.111 193.17C600.835 193.75 599.802 194.758 599.191 196.02V209.4H593.531V187.48H598.731V192C599.43 190.581 600.459 189.35 601.731 188.41C602.848 187.574 604.18 187.075 605.571 186.97H606.291C606.431 186.953 606.572 186.953 606.711 186.97V192.17Z" fill="#03798F"/>
<path d="M608.23 202.93C608.205 201.588 608.627 200.276 609.43 199.2C610.298 198.077 611.461 197.219 612.79 196.72C614.363 196.106 616.041 195.807 617.73 195.84C618.677 195.841 619.623 195.912 620.56 196.05C621.416 196.166 622.253 196.394 623.05 196.73V195.55C623.086 194.959 622.993 194.368 622.778 193.817C622.562 193.266 622.228 192.768 621.8 192.36C620.752 191.54 619.436 191.141 618.11 191.24C616.924 191.235 615.748 191.449 614.64 191.87C613.42 192.358 612.259 192.981 611.18 193.73L609.37 190C610.761 189.082 612.272 188.358 613.86 187.85C615.427 187.366 617.059 187.123 618.7 187.13C621.846 187.13 624.303 187.907 626.07 189.46C626.968 190.31 627.67 191.347 628.124 192.498C628.578 193.649 628.775 194.885 628.7 196.12V203.12C628.66 203.558 628.773 203.996 629.02 204.36C629.283 204.634 629.64 204.798 630.02 204.82V209.42L628.64 209.64C628.308 209.686 627.974 209.713 627.64 209.72C626.722 209.788 625.811 209.518 625.08 208.96C624.524 208.478 624.147 207.823 624.01 207.1L623.88 205.96C622.933 207.194 621.701 208.178 620.29 208.83C618.92 209.488 617.419 209.83 615.9 209.83C614.53 209.851 613.175 209.543 611.95 208.93C610.833 208.369 609.887 207.52 609.21 206.47C608.547 205.41 608.207 204.18 608.23 202.93V202.93ZM622 204C622.287 203.694 622.542 203.359 622.76 203C622.94 202.733 623.043 202.422 623.06 202.1V200C622.35 199.713 621.613 199.498 620.86 199.36C620.122 199.213 619.372 199.136 618.62 199.13C617.354 199.059 616.095 199.362 615 200C614.569 200.247 614.212 200.604 613.964 201.035C613.716 201.465 613.587 201.954 613.59 202.45C613.589 203.004 613.749 203.546 614.05 204.01C614.382 204.525 614.849 204.94 615.4 205.21C616.061 205.524 616.787 205.678 617.52 205.66C618.371 205.656 619.215 205.497 620.01 205.19C620.742 204.922 621.417 204.519 622 204V204Z" fill="#03798F"/>
<path d="M642.131 209.82C640.29 209.829 638.463 209.514 636.731 208.89C635.07 208.305 633.555 207.367 632.291 206.14L634.291 202.47C635.464 203.455 636.783 204.251 638.201 204.83C639.371 205.316 640.624 205.574 641.891 205.59C642.806 205.632 643.715 205.436 644.531 205.02C644.843 204.859 645.102 204.613 645.279 204.31C645.456 204.007 645.544 203.661 645.531 203.31C645.542 203.076 645.499 202.843 645.403 202.629C645.307 202.416 645.163 202.227 644.981 202.08C644.502 201.735 643.968 201.474 643.401 201.31C642.711 201.09 641.871 200.84 640.891 200.56C639.495 200.128 638.126 199.614 636.791 199.02C635.816 198.618 634.964 197.966 634.321 197.13C633.744 196.261 633.456 195.232 633.501 194.19C633.464 192.859 633.857 191.551 634.621 190.46C635.412 189.371 636.493 188.526 637.741 188.02C639.234 187.407 640.837 187.108 642.451 187.14C643.972 187.133 645.483 187.383 646.921 187.88C648.361 188.391 649.674 189.206 650.771 190.27L648.491 193.86C647.517 193.072 646.436 192.426 645.281 191.94C644.301 191.535 643.251 191.325 642.191 191.32C641.631 191.316 641.073 191.387 640.531 191.53C640.054 191.645 639.616 191.882 639.261 192.22C639.093 192.4 638.962 192.613 638.878 192.845C638.794 193.077 638.757 193.324 638.771 193.57C638.758 193.793 638.791 194.017 638.868 194.227C638.946 194.437 639.066 194.629 639.221 194.79C639.611 195.14 640.071 195.403 640.571 195.56C641.171 195.78 641.911 196.03 642.791 196.31C644.32 196.724 645.82 197.239 647.281 197.85C648.348 198.258 649.299 198.92 650.051 199.78C650.716 200.687 651.045 201.797 650.981 202.92C651.023 203.898 650.826 204.871 650.406 205.754C649.985 206.638 649.356 207.406 648.571 207.99C646.684 209.293 644.421 209.936 642.131 209.82V209.82Z" fill="#03798F"/>
<path d="M654.84 184.19V178.57H660.5V184.19H654.84ZM654.84 209.39V187.27H660.5V209.39H654.84Z" fill="#03798F"/>
<path d="M666.11 214.25L667.25 209.25H665.48V203.33H670.38V209.25L668.651 214.25H666.11Z" fill="#03798F"/>
<path d="M684.181 198.46C684.15 196.474 684.585 194.508 685.451 192.72C686.235 191.076 687.443 189.671 688.951 188.65C690.46 187.637 692.244 187.11 694.061 187.14C695.616 187.118 697.145 187.537 698.471 188.35C699.73 189.099 700.782 190.151 701.531 191.41V178.57H707.191V203.06C707.154 203.505 707.259 203.949 707.491 204.33C707.618 204.47 707.772 204.583 707.944 204.662C708.116 204.742 708.302 204.785 708.491 204.79V209.39C707.699 209.567 706.892 209.667 706.081 209.69C705.183 209.726 704.299 209.458 703.571 208.93C703.254 208.695 702.99 208.395 702.797 208.05C702.604 207.705 702.486 207.324 702.451 206.93L702.371 205.54C701.588 206.89 700.436 207.99 699.051 208.71C697.707 209.43 696.206 209.808 694.681 209.81C693.234 209.822 691.802 209.522 690.481 208.93C689.219 208.356 688.087 207.533 687.151 206.51C686.191 205.46 685.444 204.234 684.951 202.9C684.428 201.479 684.167 199.974 684.181 198.46V198.46ZM701.531 201.36V196.18C701.247 195.372 700.786 194.637 700.181 194.03C699.585 193.409 698.885 192.898 698.111 192.52C697.406 192.155 696.625 191.963 695.831 191.96C695.014 191.95 694.206 192.131 693.471 192.49C692.771 192.851 692.146 193.343 691.631 193.94C691.106 194.565 690.705 195.284 690.451 196.06C690.181 196.872 690.046 197.724 690.051 198.58C690.047 199.436 690.197 200.286 690.491 201.09C690.777 201.854 691.216 202.552 691.781 203.14C692.352 203.723 693.032 204.188 693.781 204.51C694.548 204.841 695.376 205.008 696.211 205C696.766 204.998 697.316 204.906 697.841 204.73C698.392 204.553 698.916 204.304 699.401 203.99C699.892 203.669 700.334 203.279 700.711 202.83C701.066 202.39 701.343 201.893 701.531 201.36V201.36Z" fill="#03798F"/>
<path d="M711.241 202.93C711.22 201.587 711.645 200.275 712.451 199.2C713.319 198.077 714.482 197.219 715.811 196.72C717.381 196.107 719.056 195.808 720.741 195.84C721.688 195.841 722.634 195.911 723.571 196.05C724.431 196.164 725.272 196.393 726.071 196.73V195.55C726.108 194.959 726.015 194.368 725.799 193.817C725.583 193.266 725.249 192.768 724.821 192.36C723.77 191.539 722.451 191.139 721.121 191.24C719.939 191.235 718.766 191.449 717.661 191.87C716.441 192.358 715.28 192.981 714.201 193.73L712.391 190C713.783 189.082 715.293 188.358 716.881 187.85C718.448 187.366 720.08 187.123 721.721 187.13C724.868 187.13 727.321 187.907 729.081 189.46C729.983 190.308 730.687 191.345 731.144 192.496C731.6 193.647 731.797 194.884 731.721 196.12V203.12C731.681 203.558 731.794 203.996 732.041 204.36C732.303 204.635 732.661 204.8 733.041 204.82V209.42L731.671 209.64C731.339 209.686 731.006 209.712 730.671 209.72C729.753 209.788 728.843 209.518 728.111 208.96C727.555 208.478 727.178 207.823 727.041 207.1L726.911 205.96C725.965 207.194 724.733 208.178 723.321 208.83C721.951 209.488 720.451 209.83 718.931 209.83C717.561 209.851 716.206 209.543 714.981 208.93C713.861 208.374 712.914 207.523 712.241 206.47C711.572 205.412 711.224 204.182 711.241 202.93V202.93ZM725.001 204C725.289 203.694 725.543 203.359 725.761 203C725.941 202.733 726.045 202.422 726.061 202.1V200C725.351 199.713 724.614 199.498 723.861 199.36C723.123 199.213 722.373 199.136 721.621 199.13C720.355 199.058 719.096 199.361 718.001 200C717.57 200.247 717.213 200.604 716.965 201.035C716.718 201.465 716.589 201.954 716.591 202.45C716.59 203.004 716.75 203.546 717.051 204.01C717.383 204.525 717.85 204.94 718.401 205.21C719.059 205.524 719.782 205.679 720.511 205.66C721.363 205.658 722.207 205.499 723.001 205.19C723.736 204.922 724.415 204.519 725.001 204V204Z" fill="#03798F"/>
<path d="M757.56 209.39H751.9V197.16C752.007 195.817 751.681 194.475 750.97 193.33C750.674 192.934 750.284 192.617 749.836 192.407C749.387 192.198 748.894 192.103 748.4 192.13C747.6 192.139 746.812 192.335 746.1 192.7C745.312 193.098 744.604 193.637 744.01 194.29C743.393 194.957 742.932 195.753 742.66 196.62V209.39H737V187.48H742.11V191.57C742.659 190.634 743.39 189.818 744.26 189.17C745.162 188.494 746.178 187.986 747.26 187.67C748.43 187.314 749.647 187.135 750.87 187.14C752.046 187.098 753.215 187.349 754.27 187.87C755.111 188.337 755.804 189.03 756.27 189.87C756.755 190.732 757.093 191.668 757.27 192.64C757.45 193.674 757.54 194.721 757.54 195.77L757.56 209.39Z" fill="#03798F"/>
<path d="M797.33 201.67C797.386 203.191 796.924 204.686 796.02 205.91C795.108 207.084 793.89 207.984 792.5 208.51C790.957 209.11 789.314 209.409 787.66 209.39H773.18V179.39H789.23C790.536 179.356 791.817 179.749 792.88 180.51C793.902 181.246 794.715 182.235 795.24 183.38C795.786 184.519 796.07 185.767 796.07 187.03C796.068 188.466 795.688 189.877 794.97 191.12C794.25 192.41 793.12 193.424 791.76 194C793.383 194.437 794.814 195.401 795.83 196.74C796.867 198.169 797.396 199.905 797.33 201.67V201.67ZM779 184.4V192H786.77C787.392 192.004 788.005 191.841 788.543 191.528C789.081 191.215 789.526 190.763 789.83 190.22C790.161 189.607 790.327 188.917 790.31 188.22C790.33 187.527 790.179 186.84 789.87 186.22C789.601 185.686 789.193 185.233 788.69 184.91C788.189 184.599 787.609 184.439 787.02 184.45L779 184.4ZM791.45 200.57C791.462 199.86 791.304 199.157 790.99 198.52C790.701 197.945 790.271 197.453 789.74 197.09C789.215 196.728 788.588 196.542 787.95 196.56H778.95V204.45H787.6C788.279 204.46 788.947 204.28 789.53 203.93C790.096 203.577 790.567 203.089 790.9 202.51C791.257 201.925 791.45 201.255 791.46 200.57H791.45Z" fill="#03798F"/>
<path d="M811.6 209.82C809.953 209.843 808.318 209.537 806.79 208.92C805.413 208.357 804.164 207.52 803.12 206.46C802.111 205.424 801.312 204.201 800.77 202.86C800.224 201.503 799.946 200.053 799.95 198.59C799.926 196.59 800.415 194.617 801.37 192.86C802.301 191.138 803.684 189.703 805.37 188.71C807.265 187.63 809.419 187.087 811.6 187.14C813.772 187.078 815.919 187.622 817.8 188.71C819.469 189.705 820.835 191.136 821.75 192.85C822.659 194.555 823.129 196.458 823.12 198.39C823.12 198.73 823.12 199.07 823.12 199.39C823.12 199.71 823.06 200.02 823.04 200.24H806C806.088 201.272 806.432 202.265 807 203.13C807.523 203.934 808.251 204.583 809.11 205.01C809.967 205.438 810.912 205.657 811.87 205.65C812.985 205.65 814.083 205.368 815.06 204.83C815.958 204.356 816.665 203.586 817.06 202.65L821.92 204C821.366 205.146 820.583 206.167 819.62 207C818.58 207.896 817.383 208.591 816.09 209.05C814.65 209.569 813.13 209.83 811.6 209.82V209.82ZM805.82 196.69H817.39C817.306 195.671 816.981 194.687 816.44 193.82C815.932 193.021 815.226 192.366 814.39 191.92C813.518 191.461 812.545 191.228 811.56 191.24C810.597 191.23 809.648 191.464 808.8 191.92C807.983 192.374 807.295 193.028 806.8 193.82C806.249 194.685 805.913 195.669 805.82 196.69V196.69Z" fill="#03798F"/>
<path d="M839.811 192.17C838.218 192.146 836.641 192.488 835.201 193.17C833.928 193.752 832.899 194.76 832.291 196.02V209.4H826.631V187.48H831.831V192C832.533 190.583 833.561 189.353 834.831 188.41C835.952 187.575 837.287 187.075 838.681 186.97H839.391C839.534 186.952 839.678 186.952 839.821 186.97L839.811 192.17Z" fill="#03798F"/>
<path d="M858.09 209.39L851.63 199.93L848.63 202.86V209.39H843V178.57H848.66V197.33L857.57 187.48H863.57L855.33 196.78L864.16 209.39H858.09Z" fill="#03798F"/>
<path d="M866.531 184.19V178.57H872.191V184.19H866.531ZM866.531 209.39V187.27H872.191V209.39H866.531Z" fill="#03798F"/>
<path d="M897.861 209.39H892.201V197.16C892.308 195.817 891.982 194.475 891.271 193.33C890.975 192.934 890.585 192.617 890.137 192.407C889.688 192.198 889.195 192.103 888.701 192.13C887.9 192.139 887.113 192.335 886.401 192.7C885.613 193.098 884.905 193.637 884.311 194.29C883.694 194.957 883.233 195.753 882.961 196.62V209.39H877.301V187.48H882.411V191.57C882.96 190.634 883.691 189.818 884.561 189.17C885.463 188.494 886.479 187.986 887.561 187.67C888.731 187.314 889.948 187.135 891.171 187.14C892.347 187.098 893.515 187.349 894.571 187.87C895.411 188.337 896.104 189.03 896.571 189.87C897.055 190.732 897.393 191.668 897.571 192.64C897.751 193.674 897.841 194.721 897.841 195.77L897.861 209.39Z" fill="#03798F"/>
<path d="M913.061 209.82C911.414 209.844 909.778 209.538 908.251 208.92C906.87 208.358 905.618 207.521 904.571 206.46C903.568 205.421 902.773 204.199 902.231 202.86C901.68 201.504 901.402 200.053 901.411 198.59C901.388 196.592 901.874 194.62 902.821 192.86C903.755 191.14 905.137 189.706 906.821 188.71C908.716 187.63 910.87 187.087 913.051 187.14C915.226 187.08 917.375 187.624 919.261 188.71C920.946 189.7 922.329 191.132 923.261 192.85C924.169 194.555 924.64 196.458 924.631 198.39C924.631 198.73 924.631 199.07 924.631 199.39C924.631 199.71 924.571 200.02 924.541 200.24H907.401C907.493 201.271 907.837 202.263 908.401 203.13C908.927 203.935 909.659 204.584 910.521 205.01C911.377 205.439 912.323 205.658 913.281 205.65C914.396 205.65 915.494 205.368 916.471 204.83C917.369 204.356 918.076 203.586 918.471 202.65L923.321 204C922.774 205.151 921.99 206.173 921.021 207C919.985 207.896 918.791 208.591 917.501 209.05C916.076 209.561 914.574 209.821 913.061 209.82V209.82ZM907.281 196.69H918.841C918.742 195.667 918.399 194.683 917.841 193.82C917.348 193.026 916.659 192.372 915.841 191.92C914.968 191.465 913.996 191.231 913.011 191.24C912.045 191.229 911.092 191.463 910.241 191.92C909.423 192.373 908.735 193.027 908.241 193.82C907.692 194.685 907.363 195.67 907.281 196.69V196.69Z" fill="#03798F"/>
<path d="M941.26 192.17C939.67 192.146 938.096 192.488 936.66 193.17C935.387 193.752 934.358 194.76 933.75 196.02V209.4H928.09V187.48H933.28V192C933.982 190.583 935.01 189.353 936.28 188.41C937.397 187.574 938.729 187.075 940.12 186.97H940.84C940.979 186.952 941.12 186.952 941.26 186.97V192.17Z" fill="#03798F"/>
<path d="M942.62 217.67C941.6 217.677 940.585 217.511 939.62 217.18C938.659 216.857 937.769 216.351 937 215.69L939.45 211.84C939.758 212.179 940.152 212.428 940.59 212.56C941.027 212.698 941.482 212.769 941.94 212.77C942.419 212.775 942.892 212.655 943.31 212.42C943.728 212.184 944.074 211.838 944.31 211.42C944.554 210.987 944.678 210.497 944.67 210V187.48H950.33V209.62C950.361 211.079 950.016 212.522 949.33 213.81C948.685 215.004 947.723 215.996 946.549 216.677C945.376 217.359 944.037 217.702 942.68 217.67H942.62ZM944.62 184.4V178.78H950.28V184.4H944.62Z" fill="#03798F"/>
<path d="M953.931 202.93C953.906 201.588 954.328 200.276 955.131 199.2C956.001 198.08 957.164 197.221 958.491 196.72C960.064 196.107 961.742 195.808 963.431 195.84C964.378 195.841 965.324 195.912 966.261 196.05C967.118 196.163 967.955 196.392 968.751 196.73V195.55C968.787 194.959 968.695 194.368 968.479 193.817C968.263 193.266 967.929 192.769 967.501 192.36C966.453 191.54 965.137 191.141 963.811 191.24C962.628 191.235 961.455 191.449 960.351 191.87C959.129 192.353 957.968 192.978 956.891 193.73L955.071 190C956.465 189.08 957.979 188.356 959.571 187.85C961.134 187.364 962.763 187.122 964.401 187.13C967.554 187.13 970.011 187.907 971.771 189.46C972.673 190.308 973.377 191.345 973.833 192.496C974.29 193.647 974.487 194.884 974.411 196.12V203.12C974.369 203.557 974.478 203.995 974.721 204.36C974.986 204.631 975.342 204.795 975.721 204.82V209.42L974.351 209.64C974.019 209.685 973.685 209.712 973.351 209.72C972.436 209.788 971.529 209.517 970.801 208.96C970.239 208.482 969.858 207.825 969.721 207.1L969.591 205.96C968.642 207.184 967.41 208.158 966.001 208.8C964.627 209.458 963.124 209.8 961.601 209.8C960.234 209.822 958.882 209.514 957.661 208.9C956.538 208.344 955.588 207.494 954.911 206.44C954.254 205.388 953.914 204.17 953.931 202.93V202.93ZM967.691 204.03C967.982 203.727 968.237 203.392 968.451 203.03C968.631 202.763 968.734 202.452 968.751 202.13V200C968.041 199.713 967.304 199.498 966.551 199.36C965.816 199.213 965.07 199.136 964.321 199.13C963.052 199.077 961.796 199.4 960.711 200.06C960.278 200.305 959.918 200.662 959.668 201.092C959.419 201.523 959.288 202.012 959.291 202.51C959.294 203.065 959.457 203.606 959.761 204.07C960.093 204.585 960.56 205 961.111 205.27C961.768 205.586 962.492 205.74 963.221 205.72C964.072 205.716 964.916 205.557 965.711 205.25C966.446 204.966 967.118 204.541 967.691 204V204.03Z" fill="#03798F"/>
<path d="M299.061 72.83C298.162 71.8416 297.083 71.0338 295.881 70.45C293.669 69.1692 291.389 68.0108 289.051 66.98C286.15 65.6842 283.159 64.6014 280.101 63.74C276.944 62.832 273.676 62.3675 270.391 62.36C266.144 62.36 262.857 63.1 260.531 64.58C259.391 65.2973 258.466 66.3082 257.852 67.5064C257.238 68.7047 256.958 70.0461 257.041 71.39C256.997 72.4983 257.213 73.6016 257.674 74.6107C258.134 75.6199 258.825 76.5069 259.691 77.2C261.999 78.8986 264.594 80.1688 267.351 80.95C270.684 82.0233 274.781 83.2733 279.641 84.7C285.83 86.273 291.834 88.5023 297.551 91.35C302.22 93.6197 306.218 97.0661 309.151 101.35C311.817 105.43 313.151 110.837 313.151 117.57C313.151 123.69 312.041 128.867 309.821 133.1C307.709 137.204 304.617 140.725 300.821 143.35C296.871 146.018 292.464 147.936 287.821 149.01C282.908 150.187 277.873 150.777 272.821 150.77C267.394 150.754 261.982 150.211 256.661 149.15C251.244 148.098 245.935 146.551 240.801 144.53C235.878 142.615 231.183 140.16 226.801 137.21L237.721 115.21C238.915 116.315 240.238 117.272 241.661 118.06C244.322 119.672 247.085 121.112 249.931 122.37C253.493 123.957 257.17 125.271 260.931 126.3C264.931 127.425 269.066 127.997 273.221 128C277.674 128 280.987 127.293 283.161 125.88C284.179 125.28 285.018 124.418 285.591 123.384C286.165 122.35 286.451 121.182 286.421 120C286.463 118.724 286.17 117.459 285.572 116.331C284.973 115.203 284.091 114.251 283.011 113.57C280.134 111.762 277.017 110.368 273.751 109.43C269.861 108.21 265.381 106.82 260.331 105.29C254.644 103.633 249.17 101.318 244.021 98.39C240.062 96.1801 236.762 92.9564 234.461 89.05C232.381 85.37 231.351 80.78 231.351 75.25C231.351 67.59 233.144 61.13 236.731 55.87C240.329 50.5804 245.353 46.4195 251.221 43.87C257.484 41.1208 264.261 39.7368 271.101 39.81C276.04 39.797 280.96 40.4188 285.741 41.66C290.262 42.8275 294.678 44.3729 298.941 46.28C303.027 48.1333 306.694 49.9833 309.941 51.83L299.061 72.83Z" fill="#5CC4E9"/>
<path d="M450.93 150H426.66V105.5C426.66 100.373 425.7 96.6001 423.78 94.1801C422.916 93.0287 421.791 92.099 420.498 91.4679C419.204 90.8368 417.779 90.5222 416.34 90.5501C413.1 90.5501 409.913 91.8601 406.78 94.4801C403.625 97.1333 401.308 100.645 400.11 104.59V150H375.83V105.5C375.83 100.273 374.87 96.4735 372.95 94.1001C372.075 92.9695 370.947 92.0596 369.656 91.4431C368.366 90.8267 366.95 90.5209 365.52 90.5501C362.38 90.5501 359.243 91.8368 356.11 94.4101C352.946 97.0174 350.58 100.462 349.28 104.35V150H325V70.0001H346.85V83.7001C349.724 79.0005 353.847 75.1922 358.76 72.7001C364.204 70.0193 370.214 68.6918 376.28 68.8301C382.847 68.8301 387.903 70.3735 391.45 73.4601C394.815 76.2647 397.206 80.0629 398.28 84.3101C401.187 79.4674 405.355 75.5061 410.34 72.8501C415.558 70.1258 421.375 68.7507 427.26 68.8501C432.313 68.8501 436.407 69.7868 439.54 71.6601C442.558 73.4023 445.03 75.951 446.68 79.0201C448.306 82.0847 449.43 85.3899 450.01 88.8101C450.608 92.1908 450.913 95.6169 450.92 99.0501L450.93 150Z" fill="#5CC4E9"/>
<path d="M461.86 126.22C461.76 121.254 463.307 116.394 466.26 112.4C469.417 108.276 473.604 105.055 478.4 103.06C484.014 100.697 490.06 99.5356 496.15 99.65C499.355 99.6477 502.554 99.9288 505.71 100.49C508.523 100.968 511.271 101.77 513.9 102.88V99.35C513.9 95.0834 512.583 91.8034 509.95 89.51C507.317 87.2167 503.317 86.0767 497.95 86.09C493.667 86.0524 489.417 86.8366 485.43 88.4C481.101 90.1713 476.966 92.383 473.09 95L465.8 79.29C470.88 75.8857 476.428 73.238 482.27 71.43C488.149 69.6568 494.26 68.7737 500.4 68.81C512.333 68.81 521.61 71.6534 528.23 77.34C534.85 83.0267 538.163 91.2567 538.17 102.03V122.72C538.17 125.14 538.55 126.827 539.31 127.78C539.828 128.321 540.449 128.753 541.135 129.052C541.822 129.35 542.561 129.51 543.31 129.52V150C541.31 150.41 539.39 150.72 537.62 150.93C536.087 151.115 534.544 151.215 533 151.23C528.44 151.23 524.973 150.307 522.6 148.46C520.21 146.598 518.614 143.901 518.13 140.91L517.67 137.37C514.338 141.857 509.998 145.499 505 148C500.218 150.388 494.945 151.628 489.6 151.62C484.669 151.701 479.796 150.553 475.42 148.28C471.358 146.178 467.927 143.034 465.48 139.17C463.047 135.294 461.789 130.796 461.86 126.22V126.22ZM510.1 129.1C511.169 128.254 512.094 127.241 512.84 126.1C513.482 125.189 513.85 124.113 513.9 123V116C511.714 115.167 509.454 114.544 507.15 114.14C504.871 113.716 502.558 113.491 500.24 113.47C496.345 113.322 492.493 114.331 489.17 116.37C487.828 117.142 486.714 118.256 485.942 119.598C485.169 120.939 484.765 122.462 484.77 124.01C484.758 125.76 485.285 127.471 486.28 128.91C487.341 130.441 488.782 131.671 490.46 132.48C492.423 133.41 494.578 133.866 496.75 133.81C499.24 133.801 501.708 133.351 504.04 132.48C506.245 131.723 508.297 130.578 510.1 129.1V129.1Z" fill="#5CC4E9"/>
<path d="M606.289 90.25C600.846 90.1742 595.439 91.1416 590.359 93.1C585.613 95 582.176 97.7967 580.049 101.49V150H555.77V70H578.07V85.41C580.497 80.3336 584.146 75.9389 588.69 72.62C592.65 69.6742 597.416 68.0098 602.349 67.85H604.849C605.334 67.8417 605.817 67.8921 606.289 68V90.25Z" fill="#5CC4E9"/>
<path d="M668.001 145.72C665.771 146.64 663.321 147.57 660.641 148.49C657.891 149.435 655.077 150.184 652.221 150.73C649.37 151.282 646.474 151.563 643.571 151.57C639.757 151.614 635.97 150.918 632.421 149.52C629.096 148.187 626.29 145.816 624.421 142.76C622.421 139.633 621.421 135.483 621.421 130.31V88.7001H611.301V70.0601H621.461V44.3301H645.741V70.0601H662.001V88.7001H645.741V121.7C645.741 124.32 646.401 126.2 647.741 127.36C649.134 128.537 650.918 129.151 652.741 129.08C654.62 129.056 656.485 128.746 658.271 128.16C660.021 127.638 661.724 126.969 663.361 126.16L668.001 145.72Z" fill="#5CC4E9"/>
<path d="M714.811 40.6301H741.661L778.661 150.03H753.191L745.891 125.53H710.431L703.121 150H677.641L714.811 40.6301ZM740.701 108.12L728.161 66.0601L715.611 108.12H740.701Z" fill="#03798F"/>
<path d="M852.57 72.8301C851.665 71.845 850.583 71.0378 849.38 70.4501C847.169 69.1693 844.889 68.0109 842.55 66.9801C839.65 65.6828 836.659 64.5999 833.6 63.7401C830.443 62.8314 827.175 62.367 823.89 62.3601C819.644 62.3601 816.357 63.1001 814.03 64.5801C812.891 65.2974 811.966 66.3083 811.351 67.5065C810.737 68.7048 810.457 70.0462 810.54 71.3901C810.496 72.4995 810.713 73.6038 811.175 74.6133C811.638 75.6228 812.331 76.5091 813.2 77.2001C815.506 78.9027 818.101 80.1732 820.86 80.9501C824.194 82.0234 828.29 83.2734 833.15 84.7001C839.336 86.2747 845.337 88.504 851.05 91.3501C855.721 93.6223 859.721 97.068 862.66 101.35C865.327 105.43 866.66 110.837 866.66 117.57C866.66 123.69 865.55 128.867 863.33 133.1C861.218 137.204 858.127 140.725 854.33 143.35C850.382 146.019 845.975 147.938 841.33 149.01C836.417 150.188 831.382 150.778 826.33 150.77C820.904 150.754 815.492 150.211 810.17 149.15C804.757 148.099 799.451 146.552 794.32 144.53C789.399 142.612 784.704 140.157 780.32 137.21L791.24 115.21C792.452 116.32 793.796 117.277 795.24 118.06C797.9 119.676 800.662 121.116 803.51 122.37C807.071 123.959 810.749 125.273 814.51 126.3C818.51 127.425 822.645 127.997 826.8 128C831.254 128 834.567 127.293 836.74 125.88C837.759 125.28 838.598 124.418 839.171 123.384C839.744 122.35 840.03 121.182 840 120C840.044 118.724 839.752 117.458 839.154 116.33C838.555 115.202 837.672 114.25 836.59 113.57C833.714 111.762 830.596 110.368 827.33 109.43C823.44 108.21 818.96 106.82 813.91 105.29C808.224 103.632 802.75 101.316 797.6 98.3901C793.641 96.1802 790.342 92.9565 788.04 89.0501C785.97 85.3701 784.93 80.7801 784.93 75.2501C784.93 67.5901 786.727 61.1301 790.32 55.8701C793.919 50.5805 798.943 46.4196 804.81 43.8701C811.07 41.1212 817.844 39.7371 824.68 39.8101C829.619 39.7971 834.54 40.4189 839.32 41.6601C843.842 42.8276 848.258 44.373 852.52 46.2801C856.62 48.1335 860.287 49.9835 863.52 51.8301L852.57 72.8301Z" fill="#03798F"/>
<path d="M906.12 87.4701V150H881.24V40.6301H901L950.88 105V40.6301H975.76V150H955.43L906.12 87.4701Z" fill="#03798F"/>
<defs>
<linearGradient id="paint0_linear_271_790" x1="88.3404" y1="161.36" x2="46.4804" y2="111.48" gradientUnits="userSpaceOnUse">
<stop stop-color="#5CC4E9"/>
<stop offset="0.2" stop-color="#5BC1E6"/>
<stop offset="0.36" stop-color="#57B9DC"/>
<stop offset="0.51" stop-color="#50ABCB"/>
<stop offset="0.65" stop-color="#4798B3"/>
<stop offset="0.78" stop-color="#3A7E94"/>
<stop offset="0.91" stop-color="#2C606F"/>
<stop offset="1" stop-color="#1F454F"/>
</linearGradient>
<linearGradient id="paint1_linear_271_790" x1="78.2222" y1="21.4351" x2="159.971" y2="196.734" gradientUnits="userSpaceOnUse">
<stop stop-color="#02798F"/>
<stop offset="0.17" stop-color="#027286"/>
<stop offset="0.45" stop-color="#015D6E"/>
<stop offset="0.8" stop-color="#013C46"/>
<stop offset="1" stop-color="#00272D"/>
</linearGradient>
</defs>
</svg>
