<svg xmlns="http://www.w3.org/2000/svg" viewBox="0 0 608.863 149.222">
    <defs>
        <style>
            .cls-1{fill:#fff}
        </style>
    </defs>
    <g id="Group_39" data-name="Group 39" transform="translate(-.018 -.069)">
        <g id="Group_35" data-name="Group 35" transform="translate(.018 .069)">
            <path id="Path_53" d="M397.045 102.781c-15.595 22.462-60.856 36.568-89.847 18.91-.372-.237-.744-.44-1.082-.677a66.15 66.15 0 0 1-27.807-34.978l-.135-1.116-.575-4.33s-2.537-14.208-5.852-28.179c-.812-4.5-1.455-8.017-1.455-8.017a16.729 16.729 0 0 1-.474-2.266 20.854 20.854 0 0 1 .981-10.791 19.423 19.423 0 0 1 10.554-9.2c.034 0 .034 0 .068-.034a25.434 25.434 0 0 1 7.983-1.387h.034c6.055.1 11.5 2.842 14.512 7.239a21.571 21.571 0 0 1 1.793 3.687 20.166 20.166 0 0 1 1.184 4.33s.778 3.045 1.827 7.07c2.842 14.58 6.8 29.6 6.8 29.6l1.285 4.161.3.981 1.285 4.161s4.465 12.516 22.935 11.535c18.47-.947 23.883-13.464 25.168-16.677a34.5 34.5 0 0 0-.3-14.749l-6.7-32.712s-4.465-17.015 5.108-24.694c9.54-7.713 28.043-6.089 32.17 8.017 4.059 14.072 8.525 39.748 8.525 39.748s7.309 27.906-8.285 50.368z" class="cls-1" data-name="Path 53" transform="translate(-178.353 -.069)"/>
            <path id="Path_54" d="M127.78 161.334c-.135.2-.271.44-.406.643-18.974 28.178-66.032 34.369-89.644 20.567-23.612-13.836-28.652-42.251-28.652-42.251S2.346 115.125.215 100.579C-1.95 86.033 14.186 76.8 26.127 79.775c11.907 2.977 14.986 20.263 14.986 20.263l7.645 32.509a34.483 34.483 0 0 0 5.886 13.531c2.5 2.368 12.685 11.468 29.87 4.567 17.218-6.9 16-20.128 16-20.128l-.541-4.195-.135-1.116-.575-4.33s-2.537-14.208-5.852-28.176c-.812-4.5-1.455-8.017-1.455-8.017a16.731 16.731 0 0 1-.474-2.266 20.854 20.854 0 0 1 .981-10.791 19.423 19.423 0 0 1 10.554-9.2c.034 0 .034 0 .068-.034A25.434 25.434 0 0 1 111.069 61h.034c6.055.1 11.5 2.842 14.512 7.239a21.571 21.571 0 0 1 1.793 3.687 20.168 20.168 0 0 1 1.184 4.33s.778 3.045 1.827 7.07c2.842 14.58 6.8 29.6 6.8 29.6l1.285 4.161.3.981a66.821 66.821 0 0 1-11.024 43.266z" class="cls-1" data-name="Path 54" transform="translate(-.018 -40.388)"/>
            <path id="Path_55" d="M291.132 92.856c-9.641 2.2-19.011-2.4-21.515-10.351a20.853 20.853 0 0 1 .981-10.791 19.423 19.423 0 0 1 10.554-9.2c.034 0 .034 0 .068-.034a24.586 24.586 0 0 1 2.808-.846 21.052 21.052 0 0 1 5.176-.541h.034c6.055.1 11.5 2.842 14.512 7.239a13.314 13.314 0 0 1 1.793 3.687c.1.372.2.71.3 1.082 1.966 8.626-4.63 17.455-14.711 19.755z" class="cls-1" data-name="Path 55" transform="translate(-178.221 -40.446)"/>
        </g>
        <g id="Group_38" data-name="Group 38" transform="translate(258.322 7.319)">
            <g id="Group_36" data-name="Group 36">
                <path id="Path_56" d="M845.87 32.5l-19.147 56.56h-4.364l-17.523-50.742-17.624 50.742h-4.364L763.6 32.5h4.364l17.218 50.911L802.874 32.5h3.958l17.624 50.979L841.844 32.5z" class="cls-1" data-name="Path 56" transform="translate(-763.6 -28.779)"/>
                <path id="Path_57" d="M1010 95.413C1010 82.9 1018.525 74 1030.026 74s20.026 8.9 20.026 21.413-8.525 21.413-20.026 21.413S1010 107.929 1010 95.413zm36.162 0c0-10.588-6.9-17.76-16.1-17.76s-16.1 7.205-16.1 17.76c0 10.588 6.9 17.76 16.1 17.76 9.165.034 16.1-7.173 16.1-17.76z" class="cls-1" data-name="Path 57" transform="translate(-926.648 -56.24)"/>
                <path id="Path_58" d="M1181.912 74v3.958c-.406 0-.846-.068-1.252-.068-12.178 0-19.417 6.224-19.417 16.643v21.988H1156V74.338h5.04v9.2c3.315-6.121 10.589-9.538 20.872-9.538z" class="cls-1" data-name="Path 58" transform="translate(-1023.259 -56.24)"/>
                <path id="Path_59" d="M1242.511 59.814L1230.3 69.827v12.516h-4.5V22.4h4.5v42.42l29.938-24.627h5.751l-20.2 17.049 22.157 25.134h-5.546z" class="cls-1" data-name="Path 59" transform="translate(-1069.447 -22.096)"/>
                <path id="Path_60" d="M1346.7 32.5h4.736v52.839h37.447v3.721H1346.7z" class="cls-1" data-name="Path 60" transform="translate(-1149.449 -28.779)"/>
                <path id="Path_61" d="M1470.3 32.546a3.146 3.146 0 0 1 6.292 0 3.146 3.146 0 0 1-6.292 0zm1.116 12.28h4.026v42.183h-4.026z" class="cls-1" data-name="Path 61" transform="translate(-1231.238 -26.728)"/>
                <path id="Path_62" d="M1500.171 33.441V39.6h13.5v3.484h-13.4v38.7h-4.026v-38.7h-7.745V39.6h7.747v-6.463c0-7.036 4.195-11.637 11.7-11.637 3.078 0 6.292.88 8.322 2.74l-1.624 3.078a9.7 9.7 0 0 0-6.529-2.334c-5.273 0-7.945 2.909-7.945 8.457z" class="cls-1" data-name="Path 62" transform="translate(-1243.281 -21.5)"/>
                <path id="Path_63" d="M1584.311 96.394h-37.718c.406 10.013 8.051 16.812 18.572 16.812 5.548 0 10.656-1.928 14.039-5.886l2.436 2.672c-3.856 4.533-9.911 6.867-16.542 6.867-13.261 0-22.6-8.9-22.6-21.413S1551.464 74 1563.473 74s20.939 8.728 20.939 21.244a11.2 11.2 0 0 0-.101 1.15zm-37.651-3.146h33.625c-.575-9.134-7.476-15.662-16.812-15.662-9.336-.034-16.136 6.461-16.812 15.662z" class="cls-1" data-name="Path 63" transform="translate(-1279.014 -56.24)"/>
            </g>
            <g id="Group_37" data-name="Group 37" transform="translate(1.082 61.736)">
                <path id="Path_64" d="M816.662 270.746l-8.558-8.085c-5.21 5.074-12.246 7.679-20.6 7.679-12.077 0-20.7-5.818-20.7-14.377 0-6.7 4.229-11.637 15.493-17.624-5.988-5.649-7.747-9.066-7.747-13.4 0-7.205 6.089-12.043 15.595-12.043 8.728 0 14.343 4.195 14.343 11.231 0 5.649-3.687 9.607-13.734 14.952l16.914 16a33.1 33.1 0 0 0 4.127-10.893l5.108 1.455a37.99 37.99 0 0 1-5.446 13.024l8.8 8.322zm-12.246-11.569l-18.572-17.523c-9.878 5.176-12.855 8.728-12.855 13.734 0 6.157 5.988 10.182 14.884 10.182 6.666 0 12.315-2.097 16.544-6.393zm-24.052-34.335c0 3.315 1.319 5.649 6.969 10.893 8.9-4.7 11.806-7.51 11.806-11.569 0-4.195-3.247-7.036-9-7.036-6.154.032-9.774 3.178-9.774 7.711z" class="cls-1" data-name="Path 64" transform="translate(-766.8 -209.889)"/>
                <path id="Path_65" d="M991.26 255.3c0 9.709-8.186 15.358-23.916 15.358H937V214.1h28.618c14.647 0 22.529 5.751 22.529 14.715a13.459 13.459 0 0 1-7.848 12.449c6.496 1.928 10.961 6.664 10.961 14.036zm-42.928-32.98v15.595H964.4c7.848 0 12.313-2.571 12.313-7.747 0-5.243-4.465-7.848-12.313-7.848zm31.494 31.934c0-5.649-4.634-8.153-13.193-8.153H948.3v16.305h18.335c8.557 0 13.191-2.506 13.191-8.152z" class="cls-1" data-name="Path 65" transform="translate(-879.425 -210.683)"/>
                <path id="Path_66" d="M1148.54 277.569h-37.24c1.319 6.292 7.1 10.351 15.392 10.351 5.345 0 9.505-1.522 12.888-4.7l5.954 6.224c-4.262 4.6-10.927 7.036-19.113 7.036-15.9 0-26.217-9.3-26.217-22.123s10.385-22.056 24.525-22.056c13.87 0 23.984 8.8 23.984 22.293-.004.806-.105 2.028-.173 2.975zm-37.346-6.7h26.927c-.88-6.224-6.123-10.487-13.43-10.487-7.171.003-12.414 4.198-13.497 10.49z" class="cls-1" data-name="Path 66" transform="translate(-987.418 -235.961)"/>
                <path id="Path_67" d="M1278.708 253.634l-20.2 46.615c-3.958 9.776-9.438 12.753-16.643 12.753-4.3 0-8.8-1.455-11.569-3.958l4.025-7.442a10.935 10.935 0 0 0 7.442 2.977c3.552 0 5.649-1.691 7.611-5.988l.71-1.691-18.842-43.3h10.487l13.565 31.9 13.667-31.9h9.742z" class="cls-1" data-name="Path 67" transform="translate(-1073.508 -236.821)"/>
                <path id="Path_68" d="M1365.2 274.356c0-12.922 10.859-22.056 25.709-22.056 15.02 0 25.777 9.134 25.777 22.056s-10.757 22.123-25.777 22.123c-14.85 0-25.709-9.201-25.709-22.123zm40.086 0c0-8.254-6.157-13.5-14.377-13.5-8.153 0-14.309 5.243-14.309 13.5s6.157 13.5 14.309 13.5c8.221-.003 14.377-5.246 14.377-13.5z" class="cls-1" data-name="Path 68" transform="translate(-1162.774 -235.961)"/>
                <path id="Path_69" d="M1570.122 271.21v24.728h-10.115V272.5c0-7.679-3.789-11.4-10.25-11.4-7.205 0-12.043 4.364-12.043 13.024v21.819H1527.6v-43.169h9.607v5.582c3.315-3.958 8.558-6.055 14.85-6.055 10.386-.001 18.065 5.885 18.065 18.909z" class="cls-1" data-name="Path 69" transform="translate(-1270.237 -235.961)"/>
                <path id="Path_70" d="M1710.237 204v59.943h-9.709v-5.582c-3.383 4.127-8.389 6.157-14.309 6.157-12.516 0-21.819-8.728-21.819-22.123s9.3-22.056 21.819-22.056c5.582 0 10.487 1.861 13.9 5.818V204zm-9.945 38.395c0-8.254-5.582-13.5-12.855-13.5s-12.854 5.243-12.854 13.5 5.582 13.5 12.854 13.5 12.855-5.246 12.855-13.5z" class="cls-1" data-name="Path 70" transform="translate(-1360.76 -204)"/>
            </g>
        </g>
    </g>
</svg>
